<?xml version="1.0" encoding="utf-8"?>
<!-- Generator: Adobe Illustrator 16.0.0, SVG Export Plug-In . SVG Version: 6.00 Build 0)  -->
<!DOCTYPE svg PUBLIC "-//W3C//DTD SVG 1.1//EN" "http://www.w3.org/Graphics/SVG/1.1/DTD/svg11.dtd">
<svg version="1.1" id="Layer_1" xmlns="http://www.w3.org/2000/svg" xmlns:xlink="http://www.w3.org/1999/xlink" x="0px" y="0px"
	 width="102px" height="102.009px" viewBox="-2.164 -4.388 102 102.009" enable-background="new -2.164 -4.388 102 102.009"
	 xml:space="preserve">
<g>
	<g>
		<g>
			<path d="M37.126,93.233c-2.602,0-5.07-1.26-6.58-3.446l-3.825-5.526c-2.138-2.713-5.09-4.5-8.503-5.113l-5.162-0.945
				c-2.768-0.503-5.096-2.462-6.073-5.11c-0.484-1.329-0.608-2.773-0.354-4.179l0.929-5.065c0.645-3.581-0.085-7.224-2.054-10.252
				c-0.164-0.256-0.337-0.503-0.507-0.737l-3.58-5.169c-0.954-1.384-1.443-3.003-1.416-4.685c0.052-2.573,1.338-4.976,3.44-6.427
				l5.98-4.14c2.782-2.071,4.714-5.123,5.407-8.566l0.974-5.325c0.589-3.227,3.045-5.737,6.261-6.398
				c0.989-0.205,2.008-0.215,3.022-0.033l5.917,1.08c1.462,0.18,2.994,0.125,4.486-0.182c1.878-0.379,3.644-1.134,5.255-2.247
				l4.795-3.317c0.894-0.622,1.888-1.048,2.949-1.263c3.133-0.644,6.344,0.647,8.172,3.287l3.596,5.202
				c2.084,2.798,5.146,4.732,8.6,5.414l-0.407,2.054c-3.963-0.784-7.477-3.003-9.893-6.249l-3.615-5.229
				c-1.353-1.949-3.724-2.902-6.032-2.429c-0.784,0.16-1.515,0.475-2.177,0.933l-4.796,3.318c-1.846,1.275-3.873,2.145-6.026,2.577
				c-1.717,0.352-3.476,0.419-5.224,0.198l-5.974-1.088c-0.745-0.134-1.496-0.126-2.225,0.024c-2.376,0.486-4.19,2.342-4.625,4.723
				l-0.977,5.344c-0.799,3.971-3.016,7.47-6.243,9.872L4.63,38.3c-1.552,1.07-2.5,2.844-2.538,4.743
				c-0.021,1.239,0.34,2.436,1.046,3.456l3.567,5.151c0.179,0.249,0.375,0.525,0.557,0.811c2.256,3.472,3.093,7.65,2.353,11.762
				l-0.93,5.066C8.5,70.324,8.59,71.391,8.948,72.368c0.721,1.956,2.439,3.401,4.481,3.774l5.161,0.945
				c3.922,0.705,7.316,2.755,9.812,5.93l3.864,5.579c1.344,1.944,3.715,2.903,6.034,2.427c0.779-0.165,1.514-0.48,2.173-0.935
				l4.859-3.364c1.809-1.234,3.803-2.08,5.93-2.514c1.855-0.378,3.752-0.429,5.623-0.155l6.91,1.259
				c0.759,0.136,1.512,0.128,2.229-0.022c2.38-0.48,4.192-2.336,4.629-4.726l1.168-6.396c0.705-3.931,2.843-7.459,6.017-9.936
				l4.732-3.276c2.672-1.845,3.34-5.524,1.491-8.204l-2.868-4.137c-2.277-3.37-3.212-7.432-2.637-11.443l2.072,0.296
				c-0.502,3.498,0.312,7.038,2.293,9.964l2.861,4.131c2.504,3.632,1.596,8.617-2.022,11.116l-4.685,3.242
				c-2.72,2.122-4.582,5.196-5.195,8.622l-1.17,6.396c-0.59,3.238-3.049,5.75-6.265,6.4c-0.975,0.203-1.993,0.216-3.024,0.032
				l-6.877-1.254c-1.601-0.235-3.25-0.188-4.864,0.141c-1.853,0.379-3.59,1.115-5.163,2.188l-4.855,3.36
				c-0.889,0.612-1.876,1.037-2.936,1.263C38.192,93.182,37.656,93.233,37.126,93.233z"/>
		</g>
	</g>
	<g>
		<g>
			<path d="M96.624,21.371c-0.506,0-0.951-0.367-1.033-0.885L92.702,2.244L74.459,5.13c-0.573,0.101-1.105-0.299-1.196-0.87
				s0.3-1.107,0.87-1.197l19.275-3.049c0.562-0.093,1.108,0.296,1.198,0.87l3.054,19.276c0.088,0.57-0.302,1.106-0.871,1.196
				C96.733,21.366,96.678,21.371,96.624,21.371z"/>
		</g>
	</g>
	<g>
		<path d="M27.11,66.461c-0.187,0-0.377-0.05-0.548-0.155c-0.492-0.304-0.645-0.949-0.342-1.44l9.681-15.7
			c0.383-0.619,1.4-0.619,1.783,0l8.865,14.375l46.18-63.111c0.341-0.468,0.998-0.567,1.462-0.226
			c0.47,0.341,0.567,0.996,0.228,1.462l-47.1,64.368c-0.206,0.279-0.533,0.461-0.886,0.427c-0.348-0.015-0.667-0.199-0.851-0.497
			l-8.79-14.254l-8.79,14.254C27.805,66.284,27.463,66.461,27.11,66.461z"/>
	</g>
</g>
</svg>
