<?xml version="1.0" encoding="utf-8"?>
<!-- Generator: Adobe Illustrator 16.0.0, SVG Export Plug-In . SVG Version: 6.00 Build 0)  -->
<!DOCTYPE svg PUBLIC "-//W3C//DTD SVG 1.1//EN" "http://www.w3.org/Graphics/SVG/1.1/DTD/svg11.dtd">
<svg version="1.1" id="Layer_1" xmlns="http://www.w3.org/2000/svg" xmlns:xlink="http://www.w3.org/1999/xlink" x="0px" y="0px"
	 width="39px" height="39.003px" viewBox="-1.225 -2.025 39 39.003" enable-background="new -1.225 -2.025 39 39.003"
	 xml:space="preserve">
<g>
	<g>
		<g>
			<path d="M14.052,34.953c-1.154,0-2.249-0.562-2.918-1.533l-1.38-1.989c-0.646-0.815-1.573-1.375-2.638-1.567l-1.86-0.34
				c-1.229-0.225-2.264-1.093-2.696-2.27c-0.219-0.598-0.271-1.24-0.155-1.861l0.329-1.82c0.204-1.123-0.024-2.264-0.642-3.215
				c-0.052-0.085-0.099-0.148-0.145-0.21l-1.318-1.903C0.208,17.627-0.012,16.909,0,16.164c0.021-1.144,0.593-2.211,1.531-2.859
				l2.154-1.49c0.849-0.635,1.453-1.592,1.675-2.674l0.348-1.906c0.262-1.433,1.354-2.548,2.78-2.842
				c0.442-0.09,0.895-0.096,1.343-0.016l2.138,0.391c0.411,0.049,0.892,0.034,1.359-0.062c0.593-0.12,1.146-0.356,1.644-0.704
				l1.736-1.199c0.402-0.276,0.84-0.464,1.309-0.561c1.4-0.284,2.818,0.29,3.626,1.46l1.297,1.875
				c0.639,0.856,1.6,1.462,2.682,1.678l-0.403,2.052C23.623,8.992,22.21,8.1,21.24,6.796l-1.316-1.905
				c-0.33-0.479-0.907-0.712-1.487-0.6c-0.191,0.04-0.37,0.116-0.539,0.233l-1.731,1.195c-0.731,0.51-1.548,0.86-2.421,1.037
				c-0.687,0.141-1.392,0.167-2.098,0.078L9.458,6.437C9.279,6.405,9.089,6.405,8.91,6.442c-0.587,0.12-1.034,0.579-1.141,1.167
				L7.417,9.538c-0.327,1.607-1.219,3.011-2.511,3.977l-2.185,1.511c-0.385,0.267-0.621,0.704-0.629,1.172
				c-0.004,0.311,0.082,0.599,0.261,0.854l1.281,1.857c0.06,0.074,0.147,0.198,0.227,0.325c0.896,1.38,1.231,3.06,0.933,4.708
				l-0.331,1.823c-0.05,0.258-0.027,0.521,0.061,0.765c0.179,0.479,0.604,0.838,1.109,0.932L7.491,27.8
				c1.571,0.283,2.937,1.107,3.945,2.383l1.418,2.044c0.335,0.481,0.92,0.724,1.489,0.601c0.189-0.039,0.375-0.119,0.545-0.234
				l1.742-1.209c0.726-0.497,1.529-0.836,2.389-1.012c0.745-0.15,1.503-0.174,2.257-0.062l2.514,0.457
				c0.183,0.034,0.369,0.032,0.543-0.005c0.597-0.119,1.045-0.578,1.155-1.172l0.413-2.299c0.291-1.584,1.148-3,2.418-3.994
				l1.739-1.203c0.317-0.221,0.53-0.551,0.603-0.932c0.069-0.385-0.016-0.773-0.234-1.094l-1.036-1.49
				c-0.919-1.363-1.293-2.993-1.062-4.604l2.072,0.297c-0.158,1.097,0.098,2.206,0.715,3.123l1.03,1.481
				c0.54,0.783,0.744,1.729,0.571,2.664c-0.17,0.933-0.692,1.742-1.469,2.277l-1.69,1.167c-0.815,0.642-1.399,1.604-1.597,2.681
				l-0.416,2.303c-0.268,1.443-1.363,2.558-2.789,2.846c-0.437,0.092-0.893,0.098-1.346,0.014l-2.476-0.451
				c-0.478-0.069-0.994-0.055-1.495,0.049c-0.589,0.119-1.133,0.35-1.622,0.684l-1.744,1.21c-0.401,0.274-0.838,0.46-1.305,0.56
				C14.53,34.927,14.29,34.953,14.052,34.953z"/>
		</g>
	</g>
	<g>
		<g>
			<path d="M35.501,9.043c-0.506,0-0.951-0.368-1.033-0.884l-0.934-5.915l-5.918,0.936c-0.566,0.09-1.107-0.299-1.197-0.87
				s0.301-1.107,0.871-1.197l6.951-1.098c0.276-0.049,0.555,0.023,0.779,0.187c0.225,0.163,0.377,0.409,0.419,0.684l1.097,6.95
				c0.09,0.57-0.301,1.105-0.871,1.195C35.61,9.04,35.555,9.043,35.501,9.043z"/>
		</g>
	</g>
	<g>
		<path d="M10.444,25.298c-0.188,0-0.379-0.049-0.55-0.155c-0.491-0.304-0.645-0.948-0.342-1.44l3.491-5.66
			c0.19-0.308,0.527-0.497,0.892-0.497l0,0c0.364,0,0.701,0.188,0.892,0.499l2.67,4.334L33.562,0.43
			c0.343-0.467,0.997-0.565,1.461-0.226c0.469,0.341,0.568,0.996,0.227,1.462L18.269,24.871c-0.204,0.281-0.604,0.455-0.885,0.428
			c-0.35-0.014-0.667-0.201-0.852-0.498l-2.596-4.213l-2.601,4.215C11.139,25.123,10.794,25.298,10.444,25.298z"/>
	</g>
</g>
</svg>
