<?xml version="1.0" encoding="utf-8"?>
<!-- Generator: Adobe Illustrator 16.0.0, SVG Export Plug-In . SVG Version: 6.00 Build 0)  -->
<!DOCTYPE svg PUBLIC "-//W3C//DTD SVG 1.1//EN" "http://www.w3.org/Graphics/SVG/1.1/DTD/svg11.dtd">
<svg version="1.1" id="Layer_1" xmlns="http://www.w3.org/2000/svg" xmlns:xlink="http://www.w3.org/1999/xlink" x="0px" y="0px"
	 width="102px" height="102.009px" viewBox="-7.4 -7.399 102 102.009" enable-background="new -7.4 -7.399 102 102.009"
	 xml:space="preserve">
<g>
	<g>
		<g>
			<path d="M37.125,87.21c-2.629,0-5.089-1.291-6.58-3.449l-3.825-5.528c-2.136-2.71-5.089-4.497-8.504-5.112l-5.161-0.943
				c-2.769-0.506-5.096-2.463-6.073-5.113c-0.484-1.324-0.608-2.77-0.354-4.18l0.929-5.062c0.645-3.582-0.083-7.224-2.053-10.251
				c-0.165-0.262-0.339-0.505-0.506-0.737l-3.582-5.169C0.462,40.282-0.026,38.66,0,36.978c0.052-2.571,1.338-4.973,3.439-6.427
				l5.981-4.137c2.782-2.073,4.713-5.123,5.407-8.57l0.974-5.325c0.587-3.224,3.045-5.734,6.261-6.396
				c0.979-0.205,2.014-0.217,3.02-0.035l5.92,1.079c1.376,0.174,2.993,0.127,4.486-0.179c1.882-0.38,3.647-1.137,5.255-2.247
				l4.796-3.32c0.892-0.619,1.883-1.044,2.948-1.261c3.087-0.638,6.368,0.681,8.171,3.29l3.596,5.2
				c2.084,2.796,5.146,4.73,8.601,5.415l6.603,1.202c2.104,0.388,3.926,1.562,5.138,3.308c1.217,1.768,1.674,3.892,1.288,5.983
				l-1.258,6.928c-0.496,3.459,0.317,6.998,2.299,9.925l2.863,4.132c2.502,3.629,1.594,8.613-2.023,11.113l-4.686,3.242
				c-2.718,2.124-4.58,5.199-5.195,8.621l-1.168,6.398c-0.59,3.24-3.049,5.752-6.266,6.402c-0.971,0.204-2.006,0.215-3.021,0.032
				l-6.882-1.255c-1.534-0.225-3.252-0.184-4.863,0.143c-1.848,0.377-3.586,1.11-5.164,2.186l-4.854,3.361
				c-0.884,0.61-1.872,1.037-2.936,1.262C38.193,87.158,37.658,87.21,37.125,87.21z M23.647,8.051c-0.393,0-0.782,0.041-1.162,0.119
				c-2.376,0.49-4.19,2.345-4.625,4.724l-0.977,5.343c-0.799,3.972-3.016,7.474-6.243,9.875l-6.01,4.158
				c-1.552,1.074-2.5,2.848-2.538,4.745c-0.021,1.241,0.34,2.437,1.046,3.457l3.567,5.15c0.181,0.25,0.376,0.528,0.559,0.814
				c2.254,3.467,3.091,7.646,2.351,11.759l-0.93,5.063C8.5,64.3,8.589,65.369,8.946,66.343c0.722,1.955,2.439,3.4,4.482,3.773
				l5.161,0.943c3.925,0.71,7.318,2.76,9.812,5.932l3.864,5.58c1.323,1.914,3.697,2.902,6.034,2.426
				c0.783-0.168,1.518-0.482,2.172-0.935l4.861-3.364c1.815-1.236,3.809-2.08,5.931-2.513c1.849-0.376,3.759-0.427,5.622-0.157
				l6.91,1.262c0.738,0.131,1.506,0.131,2.229-0.022c2.38-0.479,4.192-2.336,4.629-4.728l1.168-6.396
				c0.705-3.927,2.841-7.457,6.017-9.935l4.732-3.277c2.672-1.844,3.34-5.523,1.494-8.201l-2.871-4.141
				c-2.277-3.371-3.212-7.43-2.637-11.445l1.266-6.969c0.284-1.541-0.054-3.109-0.953-4.415c-0.891-1.284-2.238-2.151-3.791-2.437
				l-6.617-1.206c-3.979-0.789-7.491-3.009-9.907-6.251l-3.615-5.23c-1.333-1.924-3.743-2.905-6.03-2.427
				c-0.787,0.16-1.521,0.472-2.179,0.928l-4.796,3.322c-1.842,1.274-3.869,2.141-6.025,2.578c-1.714,0.35-3.479,0.417-5.228,0.196
				l-5.971-1.088C24.361,8.083,24.004,8.051,23.647,8.051z"/>
		</g>
	</g>
	<g>
		<g>
			<path d="M41.738,25.246c-1.979,0.409-3.614,1.64-4.638,3.344c-0.342,0.613-1.16,0.817-1.775,0.478
				c-0.612-0.409-0.887-1.161-0.477-1.844c1.364-2.318,3.685-4.023,6.344-4.501c2.661-0.547,5.458,0.065,7.642,1.705
				c2.184,1.705,3.48,4.162,3.687,6.889c0.204,2.731-0.819,5.393-2.729,7.372l-3.41,3.479c-1.297,1.296-1.979,3-1.979,4.846v5.458
				c0,0.747-0.613,1.296-1.365,1.296c-0.681,0-1.296-0.549-1.296-1.296v-5.458c0-2.527,0.956-4.916,2.729-6.689l3.481-3.479
				c1.361-1.431,2.111-3.344,1.977-5.323c-0.137-1.974-1.159-3.818-2.729-4.98C45.629,25.314,43.649,24.907,41.738,25.246z
				 M45.083,62.705c0,1.092-0.955,1.979-2.048,1.979c-1.092,0-1.977-0.887-1.977-1.979s0.885-1.979,1.977-1.979
				C44.127,60.726,45.083,61.612,45.083,62.705z"/>
		</g>
	</g>
</g>
</svg>
