<?xml version="1.0" encoding="utf-8"?>
<!-- Generator: Adobe Illustrator 16.0.0, SVG Export Plug-In . SVG Version: 6.00 Build 0)  -->
<!DOCTYPE svg PUBLIC "-//W3C//DTD SVG 1.1//EN" "http://www.w3.org/Graphics/SVG/1.1/DTD/svg11.dtd">
<svg version="1.1" id="Layer_1" xmlns="http://www.w3.org/2000/svg" xmlns:xlink="http://www.w3.org/1999/xlink" x="0px" y="0px"
	 width="39px" height="37.75px" viewBox="0 0 39 37.75" enable-background="new 0 0 39 37.75" xml:space="preserve">
<g>
	<path d="M35.259,19.215l-1.031-1.485c-0.627-0.93-0.887-2.047-0.731-3.124l0.454-2.503c0.17-0.919-0.031-1.854-0.566-2.633
		c-0.259-0.37-0.587-0.679-0.957-0.923l0.03-0.063l-0.62-0.256c-0.001,0-0.002-0.001-0.004-0.001L31.3,8.005l-0.027,0.054
		c-0.051-0.011-0.098-0.032-0.146-0.043l-0.587-0.104L29.61,9.779h0.001l-5.243,10.564l-9.084-1.25l-0.142-0.01
		c-0.375,0-0.712,0.209-0.881,0.549L9.932,28.36l-0.796,1.601l1.079,0.194c0.141,0.023,0.276,0.056,0.412,0.095l0.009,0.002
		c0.9,0.252,1.687,0.777,2.251,1.491l1.382,1.998c0.655,0.947,1.737,1.516,2.893,1.516c0.229,0,0.464-0.022,0.708-0.072
		c0.466-0.101,0.899-0.284,1.287-0.553l1.751-1.213c0.499-0.341,1.05-0.574,1.639-0.695c0.492-0.101,1.076-0.109,1.521-0.047
		l2.485,0.452c0.211,0.038,0.422,0.058,0.633,0.058c0.238,0,0.475-0.023,0.695-0.071c1.414-0.285,2.495-1.392,2.756-2.812
		l0.422-2.314c0.193-1.085,0.781-2.057,1.619-2.711l1.69-1.171C35.96,23.004,36.358,20.812,35.259,19.215z M19.771,31.763
		l-1.757,1.215c-0.169,0.117-0.357,0.199-0.555,0.24c-0.583,0.116-1.201-0.131-1.542-0.621l-1.419-2.047
		c-0.188-0.24-0.396-0.462-0.611-0.67c-0.07-0.066-0.146-0.128-0.221-0.191c-0.153-0.137-0.312-0.266-0.477-0.385
		c-0.089-0.062-0.179-0.125-0.271-0.185c-0.168-0.108-0.34-0.208-0.518-0.3c-0.09-0.049-0.178-0.098-0.271-0.141
		c-0.043-0.021-0.081-0.047-0.126-0.063l3.706-7.472l9.082,1.25l0.144,0.013c0.377,0,0.715-0.212,0.881-0.549l5.695-11.477
		c0.076,0.072,0.155,0.145,0.219,0.231c0.229,0.333,0.314,0.732,0.242,1.128l-0.461,2.542c-0.229,1.603,0.146,3.228,1.06,4.58
		l1.034,1.494c0.229,0.33,0.313,0.73,0.244,1.129c-0.072,0.396-0.293,0.737-0.623,0.967l-1.738,1.205
		c-1.27,0.987-2.123,2.397-2.406,3.97l-0.421,2.311c-0.11,0.613-0.575,1.086-1.188,1.209c-0.18,0.039-0.377,0.039-0.562,0.007
		l-2.521-0.459c-0.735-0.107-1.504-0.089-2.246,0.062C21.292,30.931,20.495,31.267,19.771,31.763z"/>
	<path d="M8.997,27.999l4.895-9.863l9.082,1.251l0.142,0.012c0.377,0,0.715-0.213,0.881-0.55l4.673-9.417l0.844-1.692l-0.795-0.164
		c-0.216-0.044-0.421-0.105-0.621-0.179c-0.836-0.301-1.554-0.83-2.061-1.512l-1.303-1.882c-0.786-1.131-2.221-1.718-3.592-1.443
		c-0.468,0.096-0.904,0.282-1.297,0.556l-1.731,1.197c-0.512,0.354-1.072,0.595-1.671,0.715c-0.443,0.093-1.034,0.104-1.383,0.062
		L12.921,4.7c-0.441-0.08-0.897-0.074-1.329,0.014C10.18,5.006,9.099,6.109,8.84,7.526L8.49,9.438
		c-0.22,1.095-0.828,2.06-1.696,2.706L4.635,13.64c-0.926,0.638-1.492,1.694-1.515,2.828c-0.012,0.739,0.203,1.451,0.623,2.06
		l1.301,1.879C5.1,20.48,5.154,20.56,5.21,20.646c0.624,0.96,0.855,2.114,0.65,3.253l-0.335,1.83
		c-0.112,0.615-0.058,1.25,0.156,1.838c0.162,0.438,0.415,0.842,0.738,1.186L6.4,28.789l0.397,0.313h0.001l0.604,0.48l0.043-0.087
		c0.035,0.019,0.066,0.047,0.104,0.062l0.548,0.246l0.341-0.685l0,0l0.289-0.582L8.997,27.999L8.997,27.999z M12.291,6.65
		c0.093,0,0.185,0.008,0.272,0.023l2.189,0.398c0.697,0.09,1.406,0.061,2.092-0.079c0.86-0.174,1.672-0.521,2.409-1.03l1.732-1.201
		c0.169-0.116,0.355-0.195,0.557-0.236c0.57-0.122,1.207,0.14,1.539,0.619l1.32,1.909c0.009,0.014,0.021,0.022,0.029,0.035
		c0.162,0.214,0.338,0.415,0.521,0.605c0.067,0.067,0.14,0.131,0.208,0.195c0.141,0.131,0.281,0.257,0.432,0.374
		c0.081,0.064,0.166,0.126,0.25,0.188c0.152,0.107,0.312,0.21,0.475,0.306c0.084,0.05,0.166,0.102,0.254,0.146
		c0.041,0.021,0.078,0.049,0.119,0.068L26.67,9.004l0,0l-4.131,8.327l-9.082-1.252l-0.141-0.01c-0.375,0-0.713,0.209-0.882,0.549
		L7.5,26.575c-0.001-0.01-0.005-0.02-0.006-0.027c-0.02-0.152-0.021-0.308,0.006-0.46l0.335-1.831
		c0.297-1.644-0.038-3.312-0.938-4.7c-0.071-0.11-0.148-0.223-0.213-0.312l-1.289-1.861c-0.18-0.261-0.272-0.564-0.269-0.88
		c0.012-0.486,0.253-0.938,0.649-1.213l2.188-1.516c1.29-0.96,2.178-2.361,2.498-3.958l0.354-1.932
		c0.11-0.607,0.576-1.082,1.183-1.206C12.096,6.659,12.193,6.65,12.291,6.65z"/>
</g>
</svg>
