<?xml version="1.0" encoding="utf-8"?>
<!-- Generator: Adobe Illustrator 16.0.0, SVG Export Plug-In . SVG Version: 6.00 Build 0)  -->
<!DOCTYPE svg PUBLIC "-//W3C//DTD SVG 1.1//EN" "http://www.w3.org/Graphics/SVG/1.1/DTD/svg11.dtd">
<svg version="1.1" id="Layer_1" xmlns="http://www.w3.org/2000/svg" xmlns:xlink="http://www.w3.org/1999/xlink" x="0px" y="0px"
	 width="87.2px" height="87.205px" viewBox="0 0 87.2 87.205" enable-background="new 0 0 87.2 87.205" xml:space="preserve">
<g>
	<g>
		<path d="M37.129,87.205c-2.632,0-5.092-1.29-6.583-3.448l-3.825-5.528c-2.138-2.713-5.09-4.499-8.503-5.112l-5.162-0.944
			c-2.768-0.505-5.096-2.463-6.073-5.112c-0.484-1.327-0.608-2.771-0.354-4.179l0.929-5.063c0.645-3.583-0.085-7.226-2.054-10.254
			c-0.164-0.258-0.337-0.502-0.505-0.735l-3.582-5.171c-0.954-1.383-1.443-3.004-1.416-4.687c0.052-2.571,1.338-4.974,3.44-6.425
			l5.98-4.141c2.782-2.072,4.714-5.122,5.407-8.566l0.974-5.325c0.589-3.226,3.045-5.736,6.261-6.398
			c0.982-0.202,2.017-0.215,3.022-0.032l5.917,1.079c1.371,0.17,2.994,0.127,4.486-0.183c1.878-0.378,3.644-1.134,5.255-2.246
			l4.795-3.318c0.894-0.62,1.888-1.047,2.949-1.263c3.094-0.619,6.366,0.686,8.171,3.287l3.596,5.202
			c2.084,2.799,5.146,4.732,8.6,5.415l6.603,1.202c2.104,0.391,3.927,1.566,5.137,3.311c1.217,1.766,1.676,3.889,1.289,5.981
			l-1.258,6.93c-0.496,3.459,0.317,6.997,2.299,9.925l2.862,4.129c2.503,3.632,1.595,8.619-2.023,11.116l-4.685,3.241
			c-2.719,2.122-4.581,5.196-5.195,8.621l-1.169,6.398c-0.59,3.238-3.049,5.75-6.265,6.4c-0.975,0.206-2.008,0.217-3.024,0.033
			l-6.878-1.253c-1.542-0.224-3.254-0.188-4.864,0.141c-1.853,0.379-3.59,1.114-5.163,2.188l-4.855,3.36
			c-0.889,0.614-1.876,1.036-2.936,1.263C38.194,87.149,37.66,87.205,37.129,87.205z M23.652,8.047
			c-0.393,0-0.785,0.042-1.166,0.119c-2.376,0.488-4.19,2.343-4.625,4.724l-0.977,5.344c-0.799,3.973-3.016,7.472-6.243,9.873
			l-6.01,4.16c-1.552,1.071-2.5,2.846-2.538,4.743c-0.021,1.241,0.34,2.437,1.046,3.456l3.567,5.152
			c0.179,0.249,0.375,0.527,0.557,0.811c2.256,3.471,3.093,7.65,2.353,11.764l-0.93,5.062C8.5,64.294,8.59,65.36,8.948,66.339
			c0.721,1.953,2.439,3.4,4.481,3.772l5.161,0.944c3.922,0.706,7.316,2.758,9.812,5.931l3.864,5.581
			c1.323,1.911,3.691,2.905,6.034,2.426c0.779-0.165,1.514-0.482,2.173-0.937l4.859-3.362c1.809-1.235,3.803-2.078,5.93-2.515
			c1.849-0.373,3.76-0.427,5.623-0.154l6.911,1.259c0.741,0.133,1.501,0.131,2.229-0.023c2.38-0.48,4.193-2.334,4.629-4.726
			l1.168-6.395c0.705-3.93,2.843-7.46,6.016-9.935l4.733-3.277c2.671-1.844,3.34-5.525,1.491-8.203l-2.868-4.138
			c-2.277-3.371-3.212-7.431-2.637-11.446l1.265-6.97c0.285-1.544-0.053-3.108-0.951-4.413c-0.892-1.284-2.239-2.153-3.794-2.441
			l-6.616-1.203c-3.978-0.788-7.491-3.006-9.907-6.252l-3.615-5.231C53.607,2.71,51.2,1.732,48.907,2.204
			c-0.784,0.159-1.515,0.473-2.177,0.931l-4.796,3.32c-1.846,1.274-3.873,2.143-6.026,2.578c-1.71,0.351-3.479,0.421-5.224,0.198
			l-5.974-1.089C24.361,8.079,24.006,8.047,23.652,8.047z"/>
	</g>
</g>
<g>
	<path fill="none" stroke="#000000" stroke-width="2" stroke-miterlimit="10" d="M51.043,34.068"/>
	<g>
		<path fill="none" stroke="#000000" stroke-width="2" stroke-miterlimit="10" d="M37.209,24.855h17.469
			c5.271,0,9.586,4.219,9.586,9.373c0,5.157-4.314,9.374-9.586,9.374H32.521c-5.273,0-9.586,4.217-9.586,9.374
			c0,5.155,4.312,9.373,9.586,9.373H49.99"/>
		<polyline fill="none" stroke="#000000" stroke-width="2" stroke-miterlimit="10" points="44.963,32.608 37.209,24.855 
			44.963,17.103 		"/>
		<polyline fill="none" stroke="#000000" stroke-width="2" stroke-miterlimit="10" points="42.236,54.597 49.99,62.35 
			42.236,70.103 		"/>
	</g>
</g>
</svg>
