<?xml version="1.0" encoding="utf-8"?>
<svg version="1.1" id="Layer_1" x="0px" y="0px" width="39px" height="39.004px" viewBox="-0.012 -0.211 72.917 63.986" enable-background="new -3.121 -3.119 39 39.004" xmlns="http://www.w3.org/2000/svg">
  <g transform="matrix(1.137392, 0, 0, 1.183169, 17.516039, 0.038649)">
    <g>
      <g>
        <path d="M14.05,32.765c-1.167,0-2.26-0.572-2.923-1.53l-1.38-1.993c-0.643-0.814-1.566-1.373-2.631-1.564l-1.863-0.341 c-1.228-0.224-2.261-1.093-2.693-2.269c-0.218-0.591-0.271-1.229-0.162-1.853l0.336-1.832c0.202-1.119-0.024-2.26-0.64-3.208 l-1.465-2.111C0.206,15.447-0.012,14.729,0,13.984c0.021-1.145,0.595-2.209,1.527-2.856l2.154-1.492 c0.853-0.633,1.457-1.588,1.677-2.67L5.703,5.06c0.264-1.435,1.355-2.548,2.779-2.841c0.444-0.088,0.9-0.095,1.344-0.016 l2.134,0.389c0.332,0.037,0.901,0.034,1.364-0.062c0.588-0.119,1.14-0.356,1.646-0.705l1.729-1.196 c0.398-0.275,0.84-0.465,1.311-0.561c1.398-0.279,2.828,0.306,3.626,1.462l1.296,1.872c0.64,0.857,1.598,1.463,2.678,1.676 l2.372,0.435c0.931,0.17,1.737,0.691,2.278,1.466c0.541,0.787,0.744,1.729,0.574,2.661l-0.451,2.493 c-0.153,1.057,0.101,2.163,0.724,3.083l1.024,1.482c1.111,1.618,0.707,3.831-0.897,4.939l-1.688,1.166 c-0.816,0.641-1.399,1.604-1.592,2.676l-0.423,2.306c-0.266,1.438-1.356,2.554-2.78,2.843c-0.433,0.09-0.89,0.095-1.342,0.016 l-2.482-0.453c-0.426-0.061-0.993-0.053-1.496,0.049c-0.583,0.119-1.127,0.349-1.617,0.685l-1.75,1.209 c-0.386,0.27-0.824,0.457-1.294,0.56C14.518,32.742,14.283,32.765,14.05,32.765z M9.196,4.241c-0.099,0-0.195,0.01-0.292,0.029 c-0.585,0.121-1.031,0.578-1.14,1.167L7.414,7.36c-0.326,1.608-1.217,3.014-2.512,3.976L2.72,12.849 c-0.384,0.265-0.617,0.703-0.627,1.173c-0.004,0.303,0.085,0.599,0.259,0.854l1.284,1.854c0.065,0.087,0.145,0.202,0.219,0.317 c0.898,1.384,1.237,3.062,0.938,4.712l-0.335,1.828c-0.044,0.252-0.022,0.518,0.065,0.758c0.178,0.483,0.603,0.843,1.106,0.935 l1.86,0.339c1.575,0.283,2.939,1.107,3.941,2.381l1.416,2.044c0.325,0.473,0.904,0.714,1.492,0.601 c0.188-0.041,0.366-0.118,0.529-0.231l1.756-1.213c0.729-0.498,1.527-0.835,2.383-1.01c0.74-0.151,1.506-0.174,2.257-0.063 l2.513,0.458c0.178,0.031,0.371,0.033,0.551-0.005c0.588-0.12,1.034-0.579,1.144-1.171l0.421-2.302 c0.283-1.577,1.143-2.995,2.415-3.988l1.737-1.203c0.658-0.455,0.82-1.364,0.365-2.027l-1.031-1.488 c-0.922-1.362-1.297-2.995-1.062-4.604l0.459-2.531c0.071-0.39-0.011-0.767-0.236-1.094c-0.217-0.313-0.553-0.529-0.935-0.6 L25.22,7.135c-1.604-0.314-3.019-1.205-3.989-2.51l-1.316-1.902c-0.326-0.477-0.916-0.719-1.488-0.602 c-0.19,0.039-0.371,0.117-0.534,0.231L16.16,3.548c-0.736,0.512-1.551,0.858-2.416,1.035C13.06,4.724,12.349,4.75,11.642,4.66 L9.454,4.263C9.37,4.249,9.285,4.241,9.196,4.241z"/>
      </g>
    </g>
    <g>
      <g>
        <path d="M10.409,23.4c-0.269,0-0.536-0.103-0.739-0.307c-0.41-0.408-0.41-1.071,0-1.479L21.611,9.669 c0.408-0.409,1.071-0.409,1.479,0s0.408,1.071,0,1.48L11.148,23.094C10.944,23.299,10.678,23.4,10.409,23.4z"/>
      </g>
      <g>
        <path d="M22.352,23.4c-0.27,0-0.535-0.103-0.74-0.307L9.67,11.151c-0.41-0.409-0.41-1.071,0-1.48 c0.407-0.408,1.069-0.408,1.479,0L23.09,21.614c0.41,0.409,0.41,1.072,0,1.479C22.888,23.299,22.62,23.4,22.352,23.4z"/>
      </g>
    </g>
  </g>
</svg>