<?xml version="1.0" encoding="utf-8"?>
<svg version="1.1" id="Layer_1" x="0px" y="0px" width="39px" height="39.004px" viewBox="-3.12 -3.118 39 39.004" enable-background="new -3.12 -3.118 39 39.004" xmlns="http://www.w3.org/2000/svg">
  <g transform="matrix(1, 0, 0, 1, -0.725281, -2.417603)">
    <g>
      <g>
        <path d="M14.046,32.767c-1.167,0-2.26-0.574-2.922-1.535l-1.377-1.986c-0.643-0.814-1.564-1.376-2.631-1.565l-1.863-0.34 c-1.231-0.227-2.265-1.097-2.696-2.272c-0.215-0.579-0.269-1.22-0.159-1.851l0.336-1.83c0.202-1.121-0.024-2.262-0.64-3.21 L0.629,16.07C0.207,15.451-0.012,14.733,0,13.986c0.021-1.148,0.595-2.213,1.531-2.857l2.15-1.49 C4.535,9.005,5.139,8.05,5.355,6.968l0.35-1.906C5.967,3.63,7.058,2.516,8.482,2.222C8.911,2.131,9.37,2.124,9.815,2.202 l2.149,0.396c0.309,0.034,0.889,0.032,1.361-0.065c0.585-0.119,1.138-0.356,1.649-0.706l1.722-1.194 c0.402-0.275,0.84-0.464,1.307-0.56c1.446-0.288,2.83,0.304,3.632,1.458l1.3,1.878c0.635,0.854,1.594,1.459,2.678,1.674 l2.369,0.429c0.936,0.177,1.744,0.7,2.281,1.474c0.538,0.784,0.74,1.727,0.57,2.657L30.38,12.14 c-0.15,1.053,0.104,2.161,0.725,3.083l1.025,1.476c1.114,1.615,0.709,3.829-0.896,4.941l-1.688,1.165 c-0.819,0.642-1.401,1.605-1.592,2.676l-0.423,2.31c-0.26,1.436-1.354,2.551-2.784,2.842c-0.433,0.09-0.894,0.093-1.343,0.013 l-2.479-0.45c-0.429-0.062-0.994-0.055-1.5,0.049c-0.576,0.115-1.117,0.345-1.613,0.683l-1.749,1.208 c-0.39,0.272-0.829,0.463-1.302,0.562C14.519,32.743,14.28,32.767,14.046,32.767z M9.192,4.242c-0.096,0-0.191,0.01-0.282,0.029 C8.319,4.394,7.874,4.852,7.768,5.438L7.414,7.364c-0.324,1.605-1.213,3.012-2.511,3.976l-2.182,1.514 c-0.384,0.264-0.617,0.701-0.627,1.171c-0.004,0.305,0.084,0.601,0.259,0.854l1.485,2.144c0.916,1.412,1.255,3.091,0.955,4.739 l-0.335,1.828c-0.044,0.255-0.023,0.52,0.063,0.754c0.179,0.486,0.604,0.845,1.109,0.937l1.857,0.339 c1.577,0.283,2.941,1.108,3.943,2.384l1.416,2.041c0.325,0.477,0.9,0.72,1.491,0.602c0.191-0.041,0.367-0.117,0.532-0.229 l1.754-1.212c0.734-0.503,1.535-0.843,2.387-1.012c0.731-0.149,1.495-0.176,2.257-0.062l2.508,0.454 c0.182,0.033,0.369,0.035,0.549-0.002c0.591-0.121,1.039-0.579,1.146-1.167l0.42-2.306c0.28-1.574,1.139-2.993,2.416-3.988 l1.736-1.202c0.658-0.456,0.824-1.366,0.365-2.029l-1.03-1.484c-0.92-1.363-1.295-2.993-1.063-4.603l0.459-2.536 c0.072-0.389-0.01-0.766-0.235-1.093c-0.218-0.313-0.552-0.528-0.938-0.603L25.22,7.139c-1.605-0.319-3.018-1.21-3.988-2.511 l-1.316-1.906c-0.326-0.473-0.896-0.719-1.488-0.6c-0.188,0.039-0.371,0.118-0.539,0.233l-1.722,1.195 c-0.749,0.512-1.562,0.856-2.422,1.033c-0.692,0.143-1.395,0.169-2.099,0.082L9.453,4.265C9.377,4.25,9.286,4.242,9.192,4.242z"/>
      </g>
    </g>
    <g>
      <g>
        <path d="M15.709,9.768c-0.713,0.146-1.302,0.589-1.67,1.206c-0.124,0.221-0.418,0.294-0.64,0.172 c-0.221-0.147-0.32-0.421-0.171-0.667c0.489-0.833,1.326-1.447,2.285-1.624c0.959-0.196,1.966,0.024,2.753,0.618 c0.787,0.612,1.254,1.5,1.328,2.481c0.074,0.985-0.297,1.942-0.982,2.657l-1.23,1.251c-0.467,0.47-0.713,1.083-0.713,1.746v1.967 c0,0.274-0.221,0.47-0.49,0.47c-0.246,0-0.469-0.195-0.469-0.47v-1.967c0-0.907,0.346-1.771,0.983-2.408l1.254-1.255 c0.492-0.515,0.765-1.202,0.713-1.917c-0.047-0.711-0.417-1.378-0.983-1.795C17.112,9.792,16.398,9.646,15.709,9.768z M16.915,23.264c0,0.396-0.345,0.715-0.736,0.715c-0.395,0-0.714-0.319-0.714-0.715c0-0.394,0.319-0.712,0.714-0.712 C16.57,22.552,16.915,22.871,16.915,23.264z"/>
        <path d="M16.179,24.502c-0.683,0-1.237-0.556-1.237-1.237s0.555-1.234,1.237-1.234c0.682,0,1.26,0.566,1.26,1.234 C17.438,23.946,16.873,24.502,16.179,24.502z M16.179,20.569c-0.547,0-0.992-0.445-0.992-0.993v-1.967 c0-1.06,0.403-2.044,1.138-2.778l1.254-1.255c0.391-0.411,0.6-0.965,0.561-1.511c-0.037-0.557-0.326-1.081-0.771-1.411 c-0.439-0.343-1-0.471-1.564-0.372c-0.539,0.113-1.012,0.454-1.312,0.958c-0.247,0.436-0.886,0.616-1.342,0.362 c-0.509-0.337-0.65-0.929-0.366-1.396c0.579-0.98,1.541-1.664,2.639-1.866c1.043-0.216,2.27,0.042,3.162,0.717 c0.908,0.704,1.45,1.719,1.535,2.859c0.084,1.109-0.326,2.227-1.126,3.059l-1.234,1.257c-0.369,0.372-0.564,0.848-0.564,1.378 v1.967C17.19,20.134,16.746,20.569,16.179,20.569z"/>
      </g>
    </g>
  </g>
</svg>