<?xml version="1.0" encoding="utf-8"?>
<!-- Generator: Adobe Illustrator 16.0.0, SVG Export Plug-In . SVG Version: 6.00 Build 0)  -->
<!DOCTYPE svg PUBLIC "-//W3C//DTD SVG 1.1//EN" "http://www.w3.org/Graphics/SVG/1.1/DTD/svg11.dtd">
<svg version="1.1" id="Layer_1" xmlns="http://www.w3.org/2000/svg" xmlns:xlink="http://www.w3.org/1999/xlink" x="0px" y="0px"
	 width="39px" height="39.004px" viewBox="-3.119 -3.12 39 39.004" enable-background="new -3.119 -3.12 39 39.004"
	 xml:space="preserve">
<g>
	<g>
		<g>
			<path d="M14.05,32.762c-1.169,0-2.264-0.572-2.923-1.531l-1.38-1.988c-0.643-0.816-1.563-1.377-2.631-1.566l-1.864-0.342
				c-1.227-0.225-2.261-1.092-2.694-2.27c-0.217-0.592-0.271-1.234-0.159-1.854l0.336-1.828c0.202-1.121-0.024-2.262-0.64-3.209
				l-1.466-2.11C0.206,15.446-0.011,14.729,0,13.982c0.021-1.146,0.596-2.213,1.528-2.856l2.153-1.491
				c0.853-0.635,1.458-1.588,1.674-2.67l0.35-1.906c0.262-1.433,1.353-2.546,2.777-2.841C8.935,2.125,9.382,2.123,9.83,2.2
				l2.133,0.389c0.333,0.043,0.897,0.035,1.363-0.061c0.585-0.119,1.138-0.356,1.646-0.706L16.7,0.629
				c0.398-0.277,0.84-0.467,1.311-0.562c1.398-0.274,2.823,0.305,3.628,1.46l1.294,1.876c0.64,0.855,1.599,1.462,2.678,1.674
				l2.372,0.432c0.932,0.173,1.741,0.695,2.281,1.472c0.539,0.785,0.74,1.727,0.57,2.657l-0.453,2.495
				c-0.15,1.058,0.104,2.165,0.725,3.082l1.026,1.48c1.113,1.614,0.708,3.831-0.897,4.938L29.547,22.8
				c-0.819,0.643-1.401,1.604-1.592,2.676l-0.423,2.307c-0.26,1.439-1.354,2.557-2.785,2.844c-0.432,0.088-0.894,0.096-1.341,0.016
				l-2.479-0.451c-0.425-0.062-0.993-0.051-1.5,0.049c-0.577,0.115-1.121,0.348-1.613,0.682l-1.749,1.211
				c-0.394,0.271-0.827,0.459-1.295,0.559C14.519,32.739,14.283,32.762,14.05,32.762z M9.197,4.238c-0.099,0-0.195,0.01-0.292,0.03
				C8.32,4.39,7.873,4.847,7.768,5.434L7.413,7.358C7.089,8.966,6.2,10.371,4.903,11.334l-2.182,1.514
				c-0.385,0.265-0.617,0.702-0.628,1.171c-0.004,0.305,0.084,0.602,0.26,0.854l1.49,2.151c0.91,1.404,1.246,3.084,0.949,4.732
				l-0.335,1.828c-0.047,0.254-0.022,0.518,0.063,0.762c0.179,0.477,0.604,0.836,1.105,0.928l1.862,0.342
				c1.575,0.281,2.938,1.107,3.941,2.383l1.416,2.039c0.324,0.479,0.903,0.727,1.491,0.604c0.188-0.041,0.368-0.119,0.536-0.234
				l1.749-1.209c0.729-0.5,1.53-0.84,2.383-1.012c0.739-0.15,1.5-0.17,2.257-0.064l2.513,0.459c0.179,0.033,0.367,0.029,0.548-0.004
				c0.591-0.119,1.039-0.576,1.146-1.168l0.421-2.305c0.281-1.578,1.139-2.994,2.415-3.99l1.736-1.201
				c0.658-0.455,0.824-1.363,0.365-2.027L29.375,16.4c-0.918-1.358-1.293-2.991-1.062-4.604l0.46-2.533
				c0.071-0.39-0.011-0.766-0.236-1.094c-0.217-0.313-0.552-0.527-0.935-0.598L25.22,7.134c-1.605-0.316-3.018-1.205-3.989-2.511
				l-1.313-1.906c-0.332-0.474-0.919-0.722-1.491-0.598c-0.188,0.038-0.368,0.116-0.534,0.23l-1.729,1.193
				c-0.739,0.514-1.556,0.86-2.419,1.036c-0.688,0.143-1.396,0.167-2.101,0.078L9.454,4.263C9.369,4.245,9.282,4.238,9.197,4.238z"
				/>
		</g>
	</g>
	<g>
		<g>
			<path d="M12.988,22.425c-0.272,0-0.543-0.104-0.746-0.312l-3.396-3.457c-0.405-0.412-0.401-1.074,0.012-1.48
				c0.414-0.403,1.078-0.399,1.479,0.014l2.664,2.711l9.434-9.261c0.417-0.407,1.079-0.396,1.479,0.012
				c0.405,0.413,0.398,1.075-0.012,1.479L13.72,22.126C13.517,22.323,13.25,22.425,12.988,22.425z"/>
		</g>
	</g>
</g>
</svg>
