<?xml version="1.0" encoding="utf-8"?>
<!-- Generator: Adobe Illustrator 16.0.0, SVG Export Plug-In . SVG Version: 6.00 Build 0)  -->
<!DOCTYPE svg PUBLIC "-//W3C//DTD SVG 1.1//EN" "http://www.w3.org/Graphics/SVG/1.1/DTD/svg11.dtd">
<svg version="1.1" id="Layer_1" xmlns="http://www.w3.org/2000/svg" xmlns:xlink="http://www.w3.org/1999/xlink" x="0px" y="0px"
	 width="102px" height="102.009px" viewBox="-7.4 -7.402 102 102.009" enable-background="new -7.4 -7.402 102 102.009"
	 xml:space="preserve">
<g>
	<g>
		<g>
			<path d="M37.129,87.204c-2.632,0-5.092-1.29-6.583-3.448l-3.825-5.527c-2.138-2.713-5.09-4.5-8.503-5.112l-5.162-0.944
				c-2.768-0.505-5.096-2.463-6.073-5.111c-0.484-1.328-0.608-2.771-0.354-4.18l0.929-5.062c0.645-3.584-0.085-7.227-2.054-10.254
				c-0.164-0.258-0.337-0.502-0.505-0.735l-3.582-5.17c-0.954-1.383-1.443-3.004-1.416-4.687c0.052-2.571,1.338-4.974,3.44-6.425
				l5.98-4.141c2.782-2.072,4.714-5.122,5.407-8.566l0.974-5.325c0.589-3.226,3.045-5.736,6.261-6.398
				c0.982-0.202,2.017-0.215,3.022-0.032l5.917,1.079c1.371,0.17,2.994,0.127,4.486-0.183c1.878-0.378,3.644-1.134,5.255-2.246
				l4.794-3.318c0.895-0.62,1.889-1.047,2.949-1.263c3.094-0.619,6.366,0.686,8.172,3.287l3.596,5.202
				c2.084,2.799,5.146,4.732,8.6,5.415l6.604,1.202c2.104,0.391,3.926,1.566,5.137,3.311c1.217,1.766,1.676,3.889,1.289,5.981
				l-1.258,6.93c-0.496,3.459,0.316,6.997,2.299,9.925l2.861,4.128c2.504,3.632,1.596,8.619-2.022,11.115l-4.685,3.242
				c-2.72,2.121-4.582,5.195-5.195,8.621l-1.17,6.397c-0.59,3.237-3.049,5.75-6.264,6.399c-0.976,0.207-2.009,0.217-3.025,0.033
				l-6.877-1.253c-1.543-0.224-3.254-0.188-4.864,0.142c-1.853,0.379-3.591,1.113-5.163,2.188l-4.855,3.36
				c-0.889,0.614-1.876,1.036-2.936,1.263C38.194,87.148,37.66,87.204,37.129,87.204z M23.652,8.046
				c-0.393,0-0.785,0.042-1.166,0.119c-2.376,0.488-4.19,2.343-4.625,4.724l-0.977,5.344c-0.799,3.973-3.016,7.472-6.243,9.873
				l-6.01,4.16c-1.552,1.071-2.5,2.846-2.538,4.743c-0.021,1.241,0.34,2.438,1.046,3.456l3.567,5.152
				c0.179,0.249,0.375,0.527,0.557,0.811c2.256,3.471,3.093,7.65,2.353,11.764l-0.93,5.062C8.5,64.293,8.59,65.359,8.948,66.338
				c0.721,1.953,2.439,3.4,4.481,3.771l5.161,0.945c3.922,0.705,7.316,2.758,9.812,5.93l3.864,5.582
				c1.323,1.91,3.691,2.904,6.034,2.426c0.779-0.165,1.514-0.482,2.173-0.938l4.859-3.361c1.809-1.235,3.803-2.078,5.93-2.516
				c1.849-0.373,3.76-0.427,5.623-0.154l6.91,1.26c0.742,0.133,1.502,0.131,2.229-0.023c2.38-0.479,4.192-2.334,4.629-4.726
				l1.168-6.396c0.705-3.93,2.843-7.459,6.017-9.935l4.732-3.276c2.672-1.845,3.34-5.525,1.491-8.203l-2.868-4.138
				c-2.277-3.371-3.212-7.431-2.637-11.446l1.265-6.97c0.285-1.544-0.053-3.108-0.95-4.413c-0.893-1.284-2.24-2.153-3.795-2.441
				l-6.615-1.203c-3.979-0.788-7.491-3.006-9.907-6.252L54.939,4.63c-1.332-1.921-3.739-2.899-6.032-2.427
				c-0.783,0.159-1.515,0.473-2.177,0.931l-4.796,3.32c-1.846,1.274-3.873,2.143-6.026,2.578c-1.71,0.351-3.479,0.421-5.224,0.198
				L24.71,8.142C24.361,8.079,24.006,8.046,23.652,8.046z"/>
		</g>
	</g>
	<g>
		<g>
			<path d="M34.18,58.512c-0.271,0-0.541-0.104-0.747-0.312l-9.417-9.593c-0.406-0.411-0.399-1.074,0.014-1.479
				c0.411-0.406,1.073-0.402,1.479,0.012l8.685,8.846L61.706,28.98c0.41-0.406,1.074-0.4,1.479,0.012
				c0.403,0.414,0.399,1.075-0.015,1.481L34.913,58.211C34.709,58.411,34.444,58.512,34.18,58.512z"/>
		</g>
	</g>
</g>
</svg>
