<?xml version="1.0" encoding="utf-8"?>
<!-- Generator: Adobe Illustrator 16.0.0, SVG Export Plug-In . SVG Version: 6.00 Build 0)  -->
<!DOCTYPE svg PUBLIC "-//W3C//DTD SVG 1.1//EN" "http://www.w3.org/Graphics/SVG/1.1/DTD/svg11.dtd">
<svg version="1.1" id="Layer_1" xmlns="http://www.w3.org/2000/svg" xmlns:xlink="http://www.w3.org/1999/xlink" x="0px" y="0px"
	 width="102px" height="99px" viewBox="-5.9 -5.897 102 99" enable-background="new -5.9 -5.897 102 99" xml:space="preserve">
<g>
	<path fill="none" d="M28.139,37.598l26.376,3.634l12.839-25.873c-2.895-1.094-5.43-2.981-7.301-5.496l-3.615-5.231
		c-1.333-1.922-3.74-2.9-6.033-2.428c-0.783,0.159-1.515,0.473-2.177,0.931l-4.795,3.32c-1.846,1.274-3.873,2.143-6.026,2.578
		c-1.71,0.351-3.479,0.421-5.224,0.198l-5.974-1.089c-0.35-0.063-0.705-0.096-1.059-0.096c-0.393,0-0.785,0.042-1.166,0.119
		c-2.376,0.488-4.19,2.343-4.625,4.724l-0.977,5.344c-0.799,3.973-3.016,7.472-6.243,9.873l-6.01,4.16
		c-1.552,1.071-2.5,2.846-2.538,4.743c-0.021,1.241,0.34,2.437,1.046,3.456l3.567,5.153c0.179,0.249,0.375,0.526,0.557,0.811
		c2.256,3.472,3.093,7.65,2.353,11.765l-0.93,5.062c-0.185,1.04-0.095,2.106,0.263,3.085c0.326,0.885,0.864,1.656,1.537,2.28
		l15.122-30.477C27.296,37.758,27.708,37.535,28.139,37.598z"/>
	<path fill="none" d="M59.999,51.638l-26.376-3.634L21.955,71.521c3.132,0.951,5.857,2.811,7.947,5.467l3.864,5.58
		c1.323,1.912,3.691,2.906,6.034,2.427c0.779-0.165,1.514-0.481,2.173-0.937l4.858-3.363c1.81-1.234,3.804-2.077,5.931-2.514
		c1.849-0.373,3.76-0.428,5.623-0.154l6.911,1.259c0.74,0.133,1.5,0.131,2.229-0.022c2.38-0.48,4.193-2.335,4.629-4.727l1.168-6.395
		c0.705-3.931,2.844-7.461,6.016-9.936l4.733-3.277c2.671-1.844,3.341-5.525,1.491-8.203l-2.868-4.138
		c-2.276-3.371-3.212-7.431-2.637-11.446l1.265-6.97c0.285-1.544-0.053-3.108-0.951-4.413c-0.681-0.98-1.629-1.714-2.73-2.137
		l-16.607,33.47C60.84,51.478,60.429,51.699,59.999,51.638z"/>
	<path d="M87.284,45.534l-2.861-4.129c-1.981-2.928-2.795-6.466-2.299-9.925l1.258-6.93c0.387-2.093-0.072-4.216-1.289-5.981
		c-0.887-1.278-2.104-2.247-3.52-2.83l-0.935,1.883c1.103,0.423,2.051,1.156,2.731,2.137c0.897,1.305,1.235,2.869,0.95,4.413
		l-1.265,6.97c-0.575,4.016,0.359,8.075,2.637,11.446l2.868,4.138c1.849,2.678,1.181,6.359-1.491,8.203l-4.732,3.277
		c-3.174,2.475-5.312,6.005-6.017,9.936l-1.168,6.395c-0.437,2.392-2.249,4.245-4.629,4.726c-0.728,0.154-1.487,0.156-2.229,0.023
		l-6.91-1.259c-1.863-0.272-3.774-0.219-5.623,0.154c-2.127,0.437-4.121,1.278-5.93,2.514l-4.859,3.363
		c-0.659,0.453-1.394,0.771-2.173,0.937c-2.343,0.479-4.711-0.515-6.034-2.427l-3.864-5.58c-2.09-2.656-4.815-4.516-7.947-5.467
		l-0.94,1.895c2.863,0.794,5.344,2.452,7.205,4.814l3.825,5.527c1.491,2.158,3.951,3.448,6.583,3.448c0.531,0,1.065-0.056,1.6-0.162
		c1.06-0.228,2.047-0.647,2.936-1.263l4.854-3.36c1.573-1.073,3.312-1.81,5.163-2.188c1.609-0.328,3.322-0.363,4.863-0.141
		l6.879,1.253c1.017,0.185,2.05,0.173,3.023-0.032c3.217-0.65,5.676-3.162,6.266-6.4l1.168-6.398
		c0.615-3.425,2.478-6.498,5.195-8.621l4.686-3.24C88.879,54.153,89.788,49.166,87.284,45.534z"/>
	<path d="M10.447,66.339c-0.358-0.979-0.448-2.045-0.261-3.084l0.93-5.062c0.74-4.112-0.097-8.293-2.353-11.764
		c-0.182-0.283-0.378-0.562-0.557-0.811l-3.567-5.153c-0.706-1.02-1.067-2.215-1.046-3.456c0.038-1.897,0.986-3.672,2.538-4.743
		l6.01-4.16c3.228-2.401,5.444-5.9,6.243-9.873l0.977-5.344c0.435-2.381,2.249-4.235,4.625-4.724
		c0.381-0.077,0.773-0.119,1.166-0.119c0.354,0,0.709,0.032,1.059,0.096l5.974,1.089c1.744,0.223,3.514,0.152,5.224-0.198
		c2.153-0.436,4.181-1.304,6.026-2.578l4.795-3.32c0.662-0.458,1.394-0.771,2.177-0.931c2.293-0.472,4.7,0.506,6.032,2.427
		l3.615,5.231c1.872,2.515,4.405,4.402,7.301,5.496l0.937-1.888c-2.6-0.938-4.879-2.604-6.537-4.829l-3.596-5.202
		c-1.805-2.602-5.076-3.906-8.17-3.287c-1.062,0.216-2.057,0.643-2.949,1.263l-4.795,3.318c-1.611,1.112-3.377,1.868-5.255,2.246
		c-1.492,0.31-3.115,0.353-4.486,0.183l-5.917-1.079c-1.006-0.183-2.04-0.17-3.022,0.032c-3.216,0.662-5.672,3.173-6.261,6.398
		l-0.974,5.325c-0.693,3.444-2.625,6.494-5.407,8.566l-5.98,4.141c-2.103,1.451-3.389,3.854-3.44,6.425
		c-0.027,1.683,0.462,3.304,1.416,4.687L6.5,46.829c0.168,0.232,0.341,0.479,0.505,0.734c1.969,3.028,2.698,6.672,2.054,10.254
		L8.13,62.881C7.875,64.288,8,65.733,8.484,67.06c0.515,1.396,1.412,2.592,2.544,3.492l0.959-1.933
		C11.311,67.995,10.772,67.224,10.447,66.339z"/>
	<path d="M75.641,17.146L59.559,49.56l-26.375-3.635c-0.428-0.062-0.842,0.161-1.032,0.547L19.963,71.032l0.126,0.023
		c0.638,0.114,1.257,0.277,1.865,0.463l11.668-23.516l26.376,3.635c0.431,0.062,0.842-0.16,1.031-0.546l16.608-33.47
		c-0.343-0.131-0.695-0.236-1.062-0.305L75.641,17.146z"/>
	<path d="M54.954,43.311c0.43,0.062,0.842-0.161,1.032-0.546L69.292,15.95c-0.66-0.159-1.31-0.354-1.938-0.591L54.515,41.23
		l-26.376-3.633c-0.43-0.062-0.842,0.161-1.032,0.546L11.983,68.619c0.495,0.459,1.062,0.832,1.687,1.101l14.907-30.043
		L54.954,43.311z"/>
	<path d="M20.089,71.056l-0.126-0.022l-0.968,1.952l0.721,0.132c0.44,0.079,0.873,0.18,1.298,0.298l0.94-1.895
		C21.347,71.334,20.728,71.171,20.089,71.056z"/>
	<path d="M13.67,69.72c-0.624-0.269-1.191-0.642-1.687-1.101l-0.959,1.933c0.524,0.417,1.099,0.771,1.714,1.047L13.67,69.72z"/>
	<path d="M76.609,15.195l-0.969,1.951l0.937,0.17c0.366,0.068,0.721,0.174,1.062,0.305l0.935-1.883
		c-0.517-0.212-1.057-0.376-1.617-0.48L76.609,15.195z"/>
	<path d="M69.292,15.949l0.953-1.919c-0.67-0.138-1.32-0.331-1.955-0.561l-0.937,1.888C67.982,15.596,68.631,15.79,69.292,15.949z"
		/>
</g>
</svg>
