<?xml version="1.0" encoding="utf-8"?>
<!-- Generator: Adobe Illustrator 19.2.0, SVG Export Plug-In . SVG Version: 6.00 Build 0)  -->
<svg version="1.1" id="Layer_1" xmlns="http://www.w3.org/2000/svg" xmlns:xlink="http://www.w3.org/1999/xlink" x="0px" y="0px"
	 viewBox="0 0 36.015 36.017" enable-background="new 0 0 36.015 36.017" xml:space="preserve">
<g>
	<g>
		<g>
			<path stroke="#000000" stroke-miterlimit="10" d="M15.576,34.39c-0.989,0-1.913-0.485-2.474-1.296l-1.437-2.077
				c-0.804-1.02-1.912-1.69-3.194-1.921l-1.939-0.354c-1.04-0.189-1.915-0.926-2.282-1.921c-0.182-0.498-0.228-1.041-0.133-1.569
				l0.349-1.902c0.242-1.347-0.031-2.715-0.772-3.852c-0.062-0.097-0.126-0.189-0.189-0.276l-1.346-1.945
				c-0.358-0.519-0.542-1.129-0.532-1.76c0.02-0.967,0.503-1.869,1.293-2.414l2.247-1.556c1.045-0.778,1.77-1.925,2.031-3.219
				l0.365-2c0.222-1.212,1.144-2.155,2.352-2.404c0.369-0.076,0.758-0.081,1.136-0.012l2.223,0.405
				c0.516,0.064,1.125,0.048,1.686-0.068c0.706-0.143,1.369-0.427,1.975-0.844l1.801-1.247c0.336-0.233,0.71-0.394,1.108-0.475
				c1.162-0.232,2.392,0.258,3.069,1.235l1.352,1.954c0.783,1.052,1.933,1.778,3.23,2.034l2.48,0.452
				c0.791,0.147,1.476,0.588,1.93,1.243c0.458,0.664,0.63,1.461,0.484,2.248l-0.473,2.603c-0.185,1.299,0.12,2.628,0.864,3.729
				l1.075,1.551c0.94,1.364,0.6,3.238-0.76,4.177l-1.761,1.218c-1.021,0.797-1.721,1.952-1.951,3.238l-0.439,2.404
				c-0.222,1.217-1.146,2.16-2.354,2.404c-0.366,0.078-0.755,0.082-1.137,0.013l-2.584-0.471c-0.579-0.084-1.222-0.071-1.827,0.053
				c-0.696,0.143-1.349,0.419-1.94,0.822l-1.824,1.262c-0.334,0.231-0.705,0.39-1.103,0.475
				C15.977,34.368,15.775,34.39,15.576,34.39z M10.513,4.649c-0.147,0-0.295,0.016-0.438,0.045c-0.892,0.184-1.574,0.88-1.738,1.775
				L7.971,8.477C7.67,9.97,6.838,11.285,5.625,12.186l-2.258,1.563c-0.583,0.402-0.939,1.069-0.954,1.782
				c-0.008,0.466,0.128,0.915,0.394,1.298l1.34,1.936c0.067,0.094,0.141,0.198,0.209,0.305c0.848,1.305,1.162,2.875,0.884,4.42
				l-0.349,1.902c-0.07,0.39-0.036,0.791,0.098,1.158c0.271,0.733,0.917,1.277,1.685,1.417l1.938,0.355
				c1.474,0.265,2.749,1.036,3.687,2.228l1.452,2.097c0.497,0.719,1.387,1.092,2.267,0.912c0.293-0.062,0.568-0.182,0.816-0.353
				l1.826-1.263c0.679-0.464,1.428-0.781,2.228-0.945c0.694-0.14,1.412-0.16,2.112-0.058l2.597,0.473
				c0.278,0.05,0.564,0.05,0.837-0.009c0.894-0.181,1.575-0.877,1.739-1.775l0.438-2.402c0.266-1.477,1.068-2.803,2.261-3.733
				l1.778-1.231c1.003-0.692,1.255-2.075,0.56-3.082l-1.078-1.554c-0.856-1.267-1.207-2.792-0.99-4.301l0.475-2.618
				c0.108-0.58-0.019-1.168-0.357-1.658c-0.335-0.482-0.841-0.809-1.425-0.917l-2.486-0.452c-1.494-0.296-2.815-1.129-3.722-2.349
				l-1.358-1.966c-0.501-0.722-1.405-1.089-2.267-0.912c-0.294,0.061-0.568,0.178-0.817,0.35l-1.802,1.248
				c-0.695,0.478-1.456,0.804-2.266,0.969c-0.643,0.131-1.307,0.158-1.962,0.074l-2.244-0.409
				C10.779,4.662,10.645,4.649,10.513,4.649z"/>
		</g>
	</g>
	<g>
		<g>
			<path fill="none" stroke="#000000" stroke-width="1.7" stroke-miterlimit="10" d="M19.839,13.782"/>
		</g>
		<polyline fill="none" stroke="#000000" stroke-width="1.7" stroke-miterlimit="10" points="17.242,14.54 17.242,9.844 
			21.938,9.844 		"/>
		<path fill="none" stroke="#000000" stroke-width="1.7" stroke-miterlimit="10" d="M17.242,9.844c0,0,2.87,2.351,4.798,4.278"/>
		<path fill="none" stroke="#000000" stroke-width="1.7" stroke-miterlimit="10" d="M14.127,22.035c2.185,2.185,5.728,2.185,7.913,0
			s2.185-5.728,0-7.913"/>
		<path fill="none" stroke="#000000" stroke-width="1.7" stroke-miterlimit="10" d="M13.353,28.197
			c1.499,0.054,3.015-0.491,4.159-1.635c2.185-2.185,2.185-5.728,0-7.913"/>
		<path fill="none" stroke="#000000" stroke-width="1.7" stroke-miterlimit="10" d="M14.127,22.035c-0.935-0.935-0.935-2.45,0-3.385
			s2.45-0.935,3.385,0"/>
	</g>
</g>
</svg>
